<svg width="24" height="24" viewBox="0 0 24 24" fill="none" xmlns="http://www.w3.org/2000/svg">
<g opacity="0.75">
<path d="M21.495 11.1083C18.79 11.1083 16.1068 11.1083 13.4127 11.1083C13.4127 9.56862 13.4127 8.03982 13.4127 6.4929C12.6362 6.4929 11.8778 6.4929 11.1014 6.4929C11.1014 8.02895 11.1014 9.55776 11.1014 11.101C8.40004 11.101 5.71316 11.101 3.02989 11.101C3.02267 11.0902 3.01183 11.0793 3.01183 11.0721C3.01183 10.2642 2.98294 9.4527 3.01545 8.64482C3.066 7.42395 4.09886 6.48566 5.36285 6.48204C6.36321 6.47841 7.35996 6.48204 8.36031 6.48204C8.43615 6.48204 8.51199 6.48204 8.642 6.48204C8.4506 6.28641 8.28808 6.13063 8.13279 5.9676C7.61636 5.4097 7.47913 4.76485 7.77165 4.06203C8.23391 2.94623 9.67486 2.64554 10.5524 3.48602C11.0797 3.98958 11.5853 4.51488 12.1017 5.03293C12.1487 5.08003 12.1812 5.13799 12.2281 5.2032C12.304 5.13075 12.3545 5.08727 12.3979 5.0438C12.8998 4.54024 13.4018 4.03668 13.9038 3.53311C14.4311 2.99694 15.1822 2.85566 15.8467 3.15272C16.504 3.44979 16.9049 4.09826 16.8688 4.8373C16.8471 5.27566 16.6737 5.65605 16.3668 5.9676C16.2115 6.12338 16.0454 6.27192 15.8829 6.42407C15.8901 6.44219 15.9009 6.46392 15.9081 6.48204C15.9695 6.48204 16.0309 6.48204 16.0923 6.48204C17.1107 6.48204 18.1255 6.47841 19.1439 6.48204C20.1443 6.48928 20.9821 7.04719 21.3288 7.94563C21.4083 8.15213 21.4444 8.37674 21.4877 8.5941C21.5058 8.68829 21.4986 8.78611 21.4986 8.88392C21.495 9.61934 21.495 10.3548 21.495 11.1083ZM15.7203 4.82644C15.7059 4.50039 15.5939 4.31925 15.37 4.21419C15.1461 4.10913 14.9114 4.1526 14.7236 4.34099C14.3372 4.72138 13.9544 5.10539 13.5752 5.49302C13.3368 5.73575 13.3404 6.09078 13.5716 6.31901C13.7955 6.54362 14.1566 6.54 14.3986 6.3009C14.7814 5.92413 15.1642 5.54736 15.5289 5.15611C15.6301 5.05105 15.6806 4.89889 15.7203 4.82644ZM10.4405 6.48928C10.7727 6.47479 10.9533 6.35886 11.0472 6.13425C11.1447 5.89877 11.0978 5.68141 10.9244 5.50027C10.5452 5.11263 10.1624 4.72862 9.77598 4.34823C9.52679 4.10551 9.18371 4.10551 8.95258 4.33374C8.72145 4.56198 8.71784 4.91338 8.9598 5.15973C9.339 5.54736 9.7182 5.935 10.1118 6.30814C10.213 6.40596 10.3719 6.45305 10.4405 6.48928Z" fill="white"/>
<path fill-rule="evenodd" clip-rule="evenodd" d="M4.16016 13.4449H11.0833V13.95H13.4126V13.4486H20.3394V15.9809V19.2051C20.3357 20.379 19.5591 21.3136 18.4072 21.5273C18.3752 21.5333 18.3423 21.5383 18.3086 21.5414C18.2815 21.544 18.2542 21.5455 18.2266 21.5455H13.5137C13.4924 21.5455 13.4712 21.5435 13.4443 21.541L13.4126 21.5382V14H11.0833V21.5454H10.8774H6.41724C5.32666 21.5454 4.3479 20.7086 4.19995 19.6218C4.1792 19.4714 4.16992 19.3193 4.16602 19.1668C4.16187 18.9997 4.16382 18.832 4.16382 18.6653C4.16138 17.5423 4.16211 16.4193 4.16284 15.2961L4.16382 13.6116C4.16211 13.5865 4.16113 13.5623 4.16064 13.5358L4.16016 13.4449Z" fill="white"/>
</g>
</svg>
