<svg width="13" height="13" viewBox="0 0 13 13" fill="none" xmlns="http://www.w3.org/2000/svg">
<path opacity="0.75" d="M12.2168 12.7488C8.15586 12.7488 4.10058 12.7488 0.0284487 12.7488C-0.0333354 12.3245 -0.0221019 11.9583 0.348602 11.6561C0.685606 11.3829 0.977676 11.0458 1.26413 10.7203C1.36523 10.604 1.43825 10.4238 1.44387 10.2727C1.4551 8.99398 1.44386 7.71525 1.4551 6.43652C1.46633 4.30336 2.7301 2.51314 4.69595 1.8854C4.99364 1.7924 5.08351 1.66453 5.04981 1.3681C4.99926 0.903102 5.19023 0.548545 5.55531 0.304424C6.23494 -0.148945 7.17293 0.333486 7.17293 1.17629C7.17293 1.6529 7.33582 1.80984 7.74022 1.96096C9.59374 2.65264 10.7452 4.33243 10.7789 6.37258C10.8013 7.68038 10.7789 8.98817 10.7957 10.296C10.7957 10.4413 10.8687 10.6098 10.9642 10.7203C11.2563 11.0516 11.5484 11.3829 11.8798 11.6561C12.2561 11.9525 12.2842 12.3129 12.2168 12.7488Z" fill="white"/>
</svg>
