<svg width="24" height="24" viewBox="0 0 24 24" fill="none" xmlns="http://www.w3.org/2000/svg">
<g opacity="0.75">
<path d="M8.20804 12.0541C6.87877 10.8941 6.20728 9.5013 6.32148 7.82159C6.41284 6.48282 7.0021 5.34362 8.06186 4.41646C10.1357 2.61203 13.4338 2.5164 15.6401 4.21689C16.4897 4.8738 17.0698 5.68871 17.3987 6.6616C17.723 7.62618 17.7276 8.60324 17.4398 9.56366C17.1521 10.5324 16.5628 11.3556 15.7177 12.0666C16.1791 12.2661 16.5948 12.4699 17.0241 12.6237C18.1844 13.0436 19.0249 13.7546 19.5 14.8106C19.8882 15.6754 20.0344 16.5777 19.9933 17.509C19.9887 17.5963 19.9294 17.6961 19.8608 17.7626C19.1117 18.4943 18.2803 19.1388 17.3348 19.6502C16.5262 20.0867 15.6583 20.411 14.7493 20.6522C13.42 21.0056 12.0679 21.0721 10.7067 20.9307C10.1037 20.8684 9.50533 20.7062 8.91607 20.5566C8.00705 20.3279 7.16655 19.9495 6.37173 19.488C5.54037 19.0057 4.80036 18.4278 4.13344 17.7668C4.06036 17.6919 4.01011 17.5713 4.00554 17.4674C3.95986 16.2118 4.18826 15.0144 5.00135 13.9625C5.43074 13.4054 6.01543 13.0021 6.70976 12.736C7.15741 12.5655 7.59137 12.3659 8.02989 12.1788C8.08927 12.1456 8.13952 12.0998 8.20804 12.0541ZM11.9903 20.0285C12.5613 19.9703 13.1505 19.9662 13.7078 19.8456C14.3976 19.7001 15.0782 19.4963 15.736 19.2552C16.878 18.8353 17.8464 18.1742 18.7189 17.3884C18.8422 17.2761 18.8924 17.1597 18.8833 16.9976C18.8513 16.5153 18.7919 16.0372 18.6321 15.5673C18.4356 14.9936 18.125 14.4988 17.6271 14.0914C17.2023 13.7463 16.6678 13.6008 16.1791 13.3679C15.7223 13.1517 15.2609 12.948 14.795 12.7484C14.731 12.7193 14.626 12.7235 14.562 12.7526C13.8494 13.0811 13.0866 13.2681 12.2918 13.2973C11.8304 13.3139 11.3553 13.3014 10.9077 13.2141C10.3869 13.1102 9.89361 12.9064 9.38657 12.7526C9.32261 12.7318 9.23126 12.7318 9.17187 12.7568C8.45927 13.0644 7.75581 13.3762 7.04778 13.6839C6.59556 13.8793 6.20272 14.1413 5.91037 14.5196C5.34395 15.2597 5.12925 16.0954 5.09728 16.981C5.09271 17.1473 5.14752 17.2678 5.27543 17.3842C6.09309 18.116 7.00667 18.723 8.04816 19.1637C9.29977 19.7084 10.6016 20.0036 11.9903 20.0285ZM11.9766 4.00901C9.46422 3.96743 7.40865 5.92569 7.39951 8.14589C7.39038 10.4077 9.46422 12.3202 11.9629 12.3202C14.4752 12.3202 16.5308 10.4077 16.5354 8.17915C16.5491 5.92985 14.4798 3.97575 11.9766 4.00901Z" fill="white"/>
<path d="M11.9902 20.0285C10.6015 19.9994 9.29968 19.7084 8.04807 19.1762C7.00201 18.7355 6.093 18.1285 5.27534 17.3967C5.14743 17.2803 5.09262 17.1597 5.09719 16.9934C5.12916 16.1078 5.34385 15.2722 5.91028 14.5321C6.20263 14.1537 6.5909 13.8918 7.04769 13.6964C7.75572 13.3887 8.46375 13.0727 9.17178 12.7692C9.23116 12.7443 9.32252 12.7443 9.38647 12.7651C9.89351 12.9189 10.3914 13.1226 10.9076 13.2266C11.3553 13.3139 11.8303 13.3305 12.2917 13.3097C13.0865 13.2765 13.8448 13.0935 14.5619 12.7651C14.6259 12.736 14.731 12.7318 14.7949 12.7609C15.2608 12.9605 15.7222 13.1642 16.179 13.3804C16.6678 13.6091 17.2022 13.7588 17.627 14.1038C18.1204 14.5071 18.431 15.0061 18.632 15.5798C18.7918 16.0455 18.8512 16.5236 18.8832 17.0101C18.8923 17.1681 18.8421 17.2886 18.7188 17.4009C17.8463 18.1825 16.8733 18.8478 15.7359 19.2677C15.0781 19.5088 14.3975 19.7126 13.7077 19.8581C13.1504 19.9662 12.5658 19.9745 11.9902 20.0285Z" fill="white"/>
<path d="M11.9766 4.00901C14.4798 3.97159 16.5491 5.9257 16.5399 8.175C16.5308 10.4077 14.4798 12.3202 11.9674 12.316C9.46879 12.316 7.39495 10.4035 7.40408 8.14174C7.41322 5.92986 9.46422 3.97159 11.9766 4.00901Z" fill="white"/>
</g>
</svg>
