<svg width="24" height="24" viewBox="0 0 24 24" fill="none" xmlns="http://www.w3.org/2000/svg">
<path d="M12.1643 3C12.3806 3.02933 12.597 3.04964 12.8112 3.08799C14.6151 3.42191 16.1272 5.00125 16.5068 6.97994C16.8292 8.6563 16.5231 10.195 15.5701 11.551C15.1171 12.1963 14.611 12.7987 14.1192 13.4124C13.3805 14.3352 12.7296 15.3189 12.3072 16.4695C12.2521 16.6207 12.1501 16.7064 12.0031 16.711C11.8583 16.7132 11.7481 16.6365 11.6909 16.4853C11.2257 15.2151 10.487 14.1479 9.65848 13.1484C9.19322 12.5866 8.7198 12.0293 8.3178 11.4066C7.63215 10.3462 7.30565 9.17072 7.38932 7.86663C7.52808 5.71421 8.83815 3.83028 10.6747 3.22336C11.0175 3.11055 11.3685 3.04061 11.7256 3.02031C11.7623 3.01805 11.7991 3.00902 11.8358 3.00226C11.946 3 12.0562 3 12.1643 3ZM14.4417 8.1103C14.4376 6.6167 13.3397 5.41188 11.9888 5.41639C10.6441 5.42091 9.55032 6.637 9.5544 8.12158C9.55849 9.61294 10.6584 10.8132 12.0133 10.8087C13.3561 10.802 14.4457 9.59263 14.4417 8.1103Z" fill="white"/>
<path d="M22.0001 20.6886C21.9205 20.9255 21.7532 21 21.543 21C20.339 21 19.1351 21 17.9311 20.9977C17.8821 20.9977 17.8291 20.9842 17.7882 20.9571C16.1598 19.9215 14.5335 18.8814 12.9071 17.8435C12.8867 17.83 12.8683 17.8165 12.8357 17.7917C12.9581 17.5502 13.0724 17.3088 13.203 17.0787C13.3969 16.7403 13.603 16.4086 13.8091 16.0769C13.8356 16.0341 13.8886 15.9935 13.9356 15.9844C14.9885 15.7746 16.0415 15.5715 17.0965 15.3662C17.925 15.2038 18.7555 15.0436 19.584 14.8789C19.6615 14.8631 19.6983 14.8789 19.7309 14.9601C20.4614 16.7448 21.194 18.5294 21.9266 20.3141C21.9531 20.3795 21.9756 20.4449 21.998 20.5104C22.0001 20.569 22.0001 20.6277 22.0001 20.6886Z" fill="white"/>
<path d="M2.00204 20.5081C2.31629 19.7343 2.63055 18.9604 2.94888 18.1888C2.96521 18.1481 3.0203 18.112 3.06316 18.103C3.69166 17.9767 4.32017 17.8548 4.94868 17.733C6.12611 17.5029 7.30354 17.275 8.48097 17.0449C8.54423 17.0336 8.61157 17.0291 8.67075 17.0065C8.87073 16.9275 9.03602 16.9952 9.21355 17.1103C10.0237 17.6405 10.842 18.1549 11.6562 18.6761C12.8213 19.4206 13.9865 20.1629 15.1517 20.9075C15.1864 20.93 15.2191 20.9504 15.2476 20.9932C15.2191 20.9955 15.1905 21 15.1619 21C10.9317 21 6.70156 21 2.46934 21C2.25508 21 2.07958 20.9346 2 20.6886C2.00204 20.6277 2.00204 20.5691 2.00204 20.5081Z" fill="white"/>
<path d="M3.45508 16.9501C3.84075 16.0115 4.21827 15.0955 4.59782 14.1705C5.61608 14.8203 6.62618 15.4655 7.66485 16.1289C6.25071 16.4064 4.8631 16.6749 3.45508 16.9501Z" fill="white"/>
<path d="M10.0808 15.6573C9.92777 15.6866 9.78697 15.7182 9.64413 15.743C9.62168 15.7476 9.59311 15.7295 9.57067 15.7137C8.30141 14.9037 7.03011 14.0938 5.76085 13.2815C5.75269 13.277 5.74453 13.268 5.72412 13.2499C5.75881 13.2454 5.7833 13.2387 5.80575 13.2387C6.55261 13.2387 7.30151 13.2364 8.04837 13.2409C8.08715 13.2409 8.1402 13.2567 8.16469 13.2883C8.7932 14.0577 9.41762 14.8293 10.0441 15.6009C10.0523 15.6122 10.0625 15.628 10.0808 15.6573Z" fill="white"/>
<path d="M14.7986 14.739C14.9149 14.5946 15.0108 14.4751 15.1108 14.3577C15.4046 14.008 15.6985 13.6583 15.9964 13.3131C16.0311 13.2725 16.0923 13.2409 16.1433 13.2409C16.8739 13.2364 17.6044 13.2387 18.337 13.2387C18.7002 13.2387 18.9818 13.4146 19.2043 13.7237C19.2308 13.7621 19.2512 13.805 19.2859 13.8659C17.7881 14.1547 16.3107 14.4435 14.7986 14.739Z" fill="white"/>
</svg>
