<svg width="270" height="50" viewBox="0 0 270 50" fill="none" xmlns="http://www.w3.org/2000/svg">
<path d="M158.124 27.0095C157.789 31.5653 157.565 35.6211 157.173 39.6769C157.005 41.2326 156.669 42.8438 155.998 44.1772C154.319 47.6219 150.235 47.8997 148.668 44.455C147.269 41.2326 146.318 37.5657 146.094 34.0655C145.535 25.6205 146.486 17.2866 149.06 9.175C149.563 7.50822 150.347 5.89701 151.354 4.45247C153.424 1.39672 156.39 1.00781 158.796 3.78576C160.642 5.89701 162.153 8.45273 163.216 11.064C165.007 15.3421 166.35 19.7312 167.86 24.1204C168.196 25.0649 168.532 25.9538 168.812 26.6206C169.147 20.6757 169.315 14.5642 169.875 8.56385C170.266 4.61915 172.225 2.17455 174.407 2.39679C177.708 2.67458 178.772 5.45254 179.387 8.00826C182.185 19.4534 181.625 30.7875 177.82 41.8993C175.47 48.6775 170.21 49.4553 166.126 43.5105C163.272 39.3436 161.593 34.4544 159.355 29.8985C158.964 29.0652 158.628 28.1762 158.124 27.0095Z" fill="white"/>
<path d="M129.308 34.3433C126.398 34.7877 125.223 35.9545 125.167 38.788C125.111 41.5104 124.272 44.2328 123.321 46.7885C122.873 47.8997 121.53 49.2331 120.075 49.2331C118.844 49.3442 117.221 48.0664 116.662 47.0107C115.711 45.1773 115.039 43.0105 115.039 40.9548C114.927 30.6208 114.983 20.2868 115.207 9.95282C115.263 8.56385 116.438 6.50816 117.669 6.00813C122.201 4.23024 126.902 2.17455 131.658 1.73008C139.435 1.00781 145.087 8.17493 144.248 16.5644C143.856 20.6202 142.177 24.1204 139.268 26.7872C137.589 28.3429 137.813 29.3429 138.708 31.232C140.275 34.4544 141.562 37.8435 142.513 41.2882C143.52 44.8995 142.345 48.0108 140.163 48.8442C137.813 49.7331 135.407 48.3442 133.616 44.6217C131.993 41.2882 130.707 37.8435 129.308 34.3433ZM125.391 23.3981C130.259 21.898 132.721 19.1756 132.553 16.1754C132.441 14.5642 131.714 13.2864 130.035 13.6197C128.412 13.9531 125.95 14.6198 125.615 15.731C124.943 17.9533 125.391 20.5646 125.391 23.3981Z" fill="white"/>
<path d="M78.6128 26.065C78.5009 24.8982 78.5569 22.1758 78.7807 20.9535C79.564 16.231 79.8998 12.8975 81.0189 8.23049C81.4665 6.34148 82.5856 4.23024 84.0404 3.00794C86.5024 0.952251 89.1323 1.17449 90.755 4.008C92.5455 7.11931 92.1538 10.3973 91.5383 13.7308C90.4752 19.6201 89.3561 25.5649 90.643 31.6209C90.8109 32.5098 91.5943 35.2878 92.2098 35.8989C93.3848 37.0657 94.1682 37.0101 95.5111 36.9545C96.854 36.9545 99.0922 35.3433 99.316 34.121C100.043 29.6207 100.435 25.0093 100.267 20.4535C100.155 17.1755 98.9803 13.9531 98.3088 10.6751C98.1969 10.0639 97.9171 9.45279 97.8612 8.78608C97.6374 6.39704 97.5814 3.95244 100.323 2.89682C102.897 1.89676 104.856 3.45241 105.863 5.45254C107.485 8.61941 108.828 12.0085 109.78 15.4532C111.626 21.9536 111.57 28.6207 110.227 35.2322C108.772 42.3993 104.632 46.8996 98.8684 47.7886C92.3776 48.8442 86.0548 45.6773 82.4177 39.6214C79.7319 35.51 79.0604 31.0097 78.6128 26.065Z" fill="white"/>
<path d="M258.843 35.2878C258.843 34.7877 258.507 34.3988 258.003 34.3433H257.947C253.359 34.5099 249.274 35.8434 249.106 41.6771C249.05 43.0105 248.491 44.1772 247.372 45.2328C246.253 46.2885 244.294 47.0663 242.951 46.8996C241.832 46.7329 240.154 44.9551 240.042 43.7883C239.65 39.6769 239.202 35.4544 239.93 31.4542C241.105 25.0649 242.895 18.7312 244.966 12.5085C245.805 9.89726 247.708 7.3971 249.61 5.39698C253.863 0.95225 260.074 1.39672 263.095 6.7304C265.333 10.6751 266.564 15.2865 267.571 19.7312C269.194 26.7317 270.649 33.8432 269.698 41.1215C269.138 45.2328 267.18 47.733 264.55 47.7886C261.864 47.8441 260.129 45.7884 259.346 41.5659C259.122 40.3992 258.954 39.1769 258.843 38.0102C258.843 37.0657 258.843 36.1767 258.843 35.2878ZM251.233 25.7316C253.415 25.6205 254.646 25.7872 255.765 25.4538C256.604 25.2316 257.891 24.3982 257.891 23.8426C257.779 21.1202 257.388 18.3978 256.884 15.6754C256.772 15.1198 255.933 14.342 255.429 14.2864C254.926 14.2864 254.086 15.0087 253.919 15.5643C252.967 18.7312 252.184 21.898 251.233 25.7316Z" fill="white"/>
<path d="M195.502 20.0646C197.796 19.3423 199.922 18.5089 202.105 18.12C204.343 17.7311 206.693 17.8978 207.756 20.4535C208.819 23.0092 207.756 25.0649 205.574 26.3983C203.447 27.6762 201.097 28.6762 198.803 29.5652C194.942 31.0097 194.886 30.9542 195.67 35.5656C198.523 34.7877 201.321 33.9544 204.119 33.2321C207.644 32.3431 209.491 33.0654 210.61 35.6767C211.617 38.0102 210.945 40.3436 207.98 41.8437C204.063 43.8994 199.978 45.844 195.782 47.1774C190.97 48.6775 185.766 45.4551 185.262 40.7881C184.255 31.5653 183.751 22.3425 185.654 13.1753C185.99 11.6752 186.549 10.1751 187.053 8.67497C187.836 6.34148 189.347 4.61915 191.809 4.06356C196.341 3.00794 200.818 2.00787 205.406 1.17449C207.924 0.730016 209.714 1.89676 210.61 4.34136C211.449 6.78596 210.386 8.56385 208.371 9.67503C205.518 11.2307 202.664 12.8975 199.643 13.9531C196.453 15.0087 195.334 16.8977 195.502 20.0646Z" fill="white"/>
<path d="M220.961 32.5098C219.283 30.843 217.548 26.8983 216.877 24.676C215.086 19.0645 213.631 14.5087 212.4 8.78608C212.065 7.11931 212.624 5.06362 213.407 3.45241C214.974 0.118865 218.387 -0.270049 220.514 2.67458C222.192 5.00806 223.311 7.84158 224.263 10.6195C225.102 13.0086 225.494 15.6199 226.053 18.2867C227.732 14.342 229.187 10.4529 231.033 6.7304C232.04 4.73027 233.495 2.7857 235.118 1.17449C237.132 -0.770081 239.482 -0.270049 239.93 2.45235C240.433 5.56366 240.545 8.95276 239.818 11.953C237.076 23.5648 231.928 34.2321 226.109 44.5661C225.214 46.1218 223.927 47.5663 222.528 48.7331C219.562 51.1777 216.485 49.9554 216.261 46.1773C216.149 44.1217 216.541 41.8993 217.268 40.0103C218.387 37.2323 219.954 34.6211 220.961 32.5098Z" fill="white"/>
<path d="M24.9524 37.5657C23.4416 44.5661 19.4129 48.1219 13.3698 48.2886C7.38264 48.5108 2.51459 44.455 0.724042 37.7879C-0.283141 34.0099 -0.39505 30.2875 1.3955 26.7317C2.34672 24.7315 3.8575 23.4537 6.20759 23.6759C8.72555 23.8982 9.56487 25.8427 9.95655 27.8984C10.3482 29.6763 10.2363 31.6209 10.7399 33.3988C10.9637 34.1766 11.2435 35.2878 11.9709 35.8989C12.2507 36.1212 13.4817 36.0656 13.7615 35.8434C14.4889 35.2322 14.6567 34.5099 14.9365 33.7877C16.5032 29.4541 15.9437 25.0093 15.1603 20.6757C14.5448 17.2311 13.5376 13.842 12.8102 10.3973C11.915 6.06369 13.5376 2.95238 16.8949 3.28573C18.5736 3.45241 20.5879 4.73027 21.5951 6.11925C25.0643 10.9529 25.7357 16.731 26.1834 22.4536C26.2393 23.4537 26.1834 24.5093 26.1834 25.5094" fill="white"/>
<path d="M46.4949 2.73014C58.9728 2.73014 67.4219 14.842 62.7777 26.3428C61.8824 28.5096 62.1622 29.843 63.8408 31.3986C66.9743 34.2877 69.9399 37.399 72.9614 40.3992C75.8151 43.2327 76.1508 45.5106 74.0246 47.5663C72.0102 49.5109 69.772 49.122 67.0302 46.4551C63.8408 43.3438 60.6514 40.2325 57.5739 37.0101C56.231 35.6211 55.1679 35.2322 53.2654 36.1212C46.7747 39.0658 39.3327 37.5101 34.1849 32.4543C29.093 27.4539 27.5823 19.8979 30.38 13.1753C33.0098 6.84151 39.3887 2.73014 46.4949 2.73014ZM33.4015 20.0646C33.4015 27.2873 39.2768 33.1765 46.4949 33.2321C53.6571 33.2876 59.6442 27.3428 59.7002 20.1201C59.7561 12.8419 53.769 6.84151 46.383 6.89707C39.1649 6.95263 33.4015 12.7863 33.4015 20.0646Z" fill="white"/>
</svg>
